<?xml version="1.0" encoding="UTF-8"?>
<svg xmlns="http://www.w3.org/2000/svg" version="1.1" width="400" height="400" viewBox="0 0 400 400"><rect x="0" y="0" width="400" height="400" fill="#fefefe"/><g transform="scale(9.756)"><g transform="translate(4.000,4.000)"><path fill-rule="evenodd" d="M10 0L10 1L9 1L9 2L8 2L8 3L9 3L9 5L10 5L10 7L11 7L11 8L12 8L12 9L11 9L11 10L10 10L10 9L9 9L9 6L8 6L8 8L4 8L4 9L3 9L3 8L0 8L0 11L1 11L1 12L0 12L0 13L3 13L3 14L2 14L2 16L0 16L0 17L2 17L2 18L1 18L1 19L0 19L0 20L1 20L1 19L2 19L2 21L1 21L1 22L0 22L0 23L1 23L1 24L0 24L0 25L1 25L1 24L2 24L2 25L4 25L4 23L5 23L5 22L6 22L6 23L7 23L7 24L5 24L5 25L7 25L7 24L8 24L8 29L9 29L9 30L8 30L8 33L9 33L9 32L10 32L10 31L11 31L11 32L12 32L12 33L13 33L13 32L12 32L12 31L11 31L11 30L12 30L12 28L14 28L14 30L13 30L13 31L14 31L14 30L15 30L15 29L16 29L16 31L15 31L15 32L16 32L16 33L18 33L18 32L19 32L19 30L18 30L18 31L17 31L17 29L18 29L18 28L19 28L19 29L20 29L20 31L21 31L21 32L20 32L20 33L28 33L28 32L29 32L29 33L33 33L33 32L32 32L32 31L33 31L33 29L32 29L32 31L31 31L31 32L29 32L29 30L30 30L30 28L29 28L29 27L31 27L31 28L33 28L33 25L32 25L32 26L29 26L29 24L28 24L28 22L27 22L27 19L28 19L28 20L29 20L29 19L30 19L30 18L31 18L31 20L32 20L32 21L30 21L30 22L29 22L29 23L31 23L31 22L32 22L32 24L33 24L33 12L31 12L31 13L32 13L32 14L30 14L30 15L32 15L32 17L30 17L30 18L29 18L29 19L28 19L28 18L27 18L27 15L25 15L25 14L24 14L24 16L26 16L26 17L25 17L25 18L24 18L24 19L25 19L25 22L24 22L24 23L21 23L21 24L20 24L20 23L19 23L19 22L18 22L18 21L20 21L20 22L22 22L22 20L23 20L23 12L24 12L24 11L25 11L25 12L26 12L26 14L27 14L27 11L30 11L30 9L31 9L31 8L30 8L30 9L29 9L29 10L28 10L28 9L27 9L27 8L25 8L25 10L24 10L24 11L23 11L23 12L22 12L22 10L23 10L23 8L24 8L24 7L25 7L25 2L24 2L24 1L25 1L25 0L23 0L23 1L21 1L21 2L20 2L20 1L19 1L19 2L18 2L18 1L17 1L17 2L18 2L18 4L19 4L19 6L18 6L18 7L17 7L17 4L16 4L16 5L14 5L14 3L12 3L12 2L11 2L11 3L12 3L12 5L10 5L10 3L9 3L9 2L10 2L10 1L11 1L11 0ZM14 0L14 1L13 1L13 2L14 2L14 1L15 1L15 0ZM15 2L15 3L16 3L16 2ZM21 2L21 3L20 3L20 4L21 4L21 5L20 5L20 6L19 6L19 7L18 7L18 9L17 9L17 8L16 8L16 9L15 9L15 7L16 7L16 6L15 6L15 7L14 7L14 5L13 5L13 7L12 7L12 6L11 6L11 7L12 7L12 8L13 8L13 9L14 9L14 10L13 10L13 11L14 11L14 10L15 10L15 14L14 14L14 12L12 12L12 11L11 11L11 12L12 12L12 14L11 14L11 15L9 15L9 18L7 18L7 17L6 17L6 16L7 16L7 15L6 15L6 14L7 14L7 13L6 13L6 14L5 14L5 16L4 16L4 17L3 17L3 18L2 18L2 19L3 19L3 18L4 18L4 20L3 20L3 21L2 21L2 22L1 22L1 23L2 23L2 24L3 24L3 23L4 23L4 21L5 21L5 19L6 19L6 20L7 20L7 21L6 21L6 22L7 22L7 23L8 23L8 24L9 24L9 22L11 22L11 23L12 23L12 24L10 24L10 25L9 25L9 28L10 28L10 29L11 29L11 28L12 28L12 27L11 27L11 26L10 26L10 25L12 25L12 24L13 24L13 25L14 25L14 26L13 26L13 27L14 27L14 26L15 26L15 28L17 28L17 27L16 27L16 24L17 24L17 25L19 25L19 26L18 26L18 27L19 27L19 28L20 28L20 24L19 24L19 23L18 23L18 22L16 22L16 21L15 21L15 22L14 22L14 20L12 20L12 19L11 19L11 17L12 17L12 16L13 16L13 17L14 17L14 18L13 18L13 19L14 19L14 18L15 18L15 20L17 20L17 19L18 19L18 18L19 18L19 19L22 19L22 17L21 17L21 18L20 18L20 16L19 16L19 15L22 15L22 13L20 13L20 12L21 12L21 11L20 11L20 10L21 10L21 7L22 7L22 5L23 5L23 2ZM20 6L20 7L21 7L21 6ZM23 6L23 7L24 7L24 6ZM19 8L19 9L20 9L20 8ZM1 9L1 10L2 10L2 9ZM4 9L4 10L3 10L3 13L5 13L5 11L6 11L6 12L8 12L8 14L10 14L10 12L9 12L9 11L10 11L10 10L8 10L8 9ZM16 9L16 11L17 11L17 12L16 12L16 13L17 13L17 14L19 14L19 13L18 13L18 12L19 12L19 10L18 10L18 11L17 11L17 9ZM32 9L32 10L31 10L31 11L33 11L33 9ZM6 10L6 11L8 11L8 10ZM25 10L25 11L26 11L26 10ZM29 12L29 13L30 13L30 12ZM13 14L13 15L14 15L14 14ZM28 14L28 15L29 15L29 14ZM11 15L11 16L10 16L10 17L11 17L11 16L12 16L12 15ZM15 15L15 16L16 16L16 19L17 19L17 18L18 18L18 15L17 15L17 16L16 16L16 15ZM4 17L4 18L5 18L5 17ZM6 18L6 19L7 19L7 20L9 20L9 19L10 19L10 18L9 18L9 19L7 19L7 18ZM25 18L25 19L26 19L26 18ZM10 20L10 21L11 21L11 22L12 22L12 20ZM7 21L7 22L8 22L8 21ZM2 22L2 23L3 23L3 22ZM13 22L13 23L14 23L14 22ZM25 22L25 24L26 24L26 22ZM15 23L15 24L16 24L16 23ZM17 23L17 24L18 24L18 23ZM23 24L23 25L22 25L22 26L24 26L24 24ZM25 25L25 28L28 28L28 25ZM26 26L26 27L27 27L27 26ZM22 27L22 28L23 28L23 29L21 29L21 31L22 31L22 32L24 32L24 27ZM25 29L25 30L26 30L26 31L25 31L25 32L28 32L28 31L27 31L27 29ZM9 30L9 31L10 31L10 30ZM0 0L0 7L7 7L7 0ZM1 1L1 6L6 6L6 1ZM2 2L2 5L5 5L5 2ZM33 0L26 0L26 7L33 7ZM32 1L27 1L27 6L32 6ZM31 2L28 2L28 5L31 5ZM0 33L7 33L7 26L0 26ZM1 32L6 32L6 27L1 27ZM2 31L5 31L5 28L2 28Z" fill="#000000"/></g></g></svg>
